<?xml version="1.0" encoding="UTF-8" standalone="no"?>
<!-- Created with Inkscape (http://www.inkscape.org/) -->

<svg
   width="512"
   height="512"
   viewBox="0 0 135.46666 135.46667"
   version="1.1"
   id="svg2722"
   inkscape:version="1.2.2 (732a01da63, 2022-12-09)"
   sodipodi:docname="naranja.svg"
   xmlns:inkscape="http://www.inkscape.org/namespaces/inkscape"
   xmlns:sodipodi="http://sodipodi.sourceforge.net/DTD/sodipodi-0.dtd"
   xmlns:xlink="http://www.w3.org/1999/xlink"
   xmlns="http://www.w3.org/2000/svg"
   xmlns:svg="http://www.w3.org/2000/svg">
  <sodipodi:namedview
     id="namedview2724"
     pagecolor="#ffffff"
     bordercolor="#000000"
     borderopacity="0.25"
     inkscape:showpageshadow="2"
     inkscape:pageopacity="0.0"
     inkscape:pagecheckerboard="0"
     inkscape:deskcolor="#d1d1d1"
     inkscape:document-units="mm"
     showgrid="false"
     inkscape:zoom="0.85742188"
     inkscape:cx="48.984055"
     inkscape:cy="275.24374"
     inkscape:window-width="1366"
     inkscape:window-height="705"
     inkscape:window-x="-8"
     inkscape:window-y="-8"
     inkscape:window-maximized="1"
     inkscape:current-layer="layer1" />
  <defs
     id="defs2719">
    <radialGradient
       inkscape:collect="always"
       xlink:href="#linearGradient8541"
       id="radialGradient8543"
       cx="67.508873"
       cy="64.262978"
       fx="67.508873"
       fy="64.262978"
       r="56.101807"
       gradientTransform="matrix(1,0,0,1.1424065,1.6130679,-4.9096554)"
       gradientUnits="userSpaceOnUse" />
    <linearGradient
       inkscape:collect="always"
       id="linearGradient8541">
      <stop
         style="stop-color:#ff7e29;stop-opacity:1;"
         offset="0"
         id="stop8537" />
      <stop
         style="stop-color:#ff7b23;stop-opacity:1;"
         offset="0.86743516"
         id="stop8545" />
      <stop
         style="stop-color:#ff6600;stop-opacity:1;"
         offset="1"
         id="stop8539" />
    </linearGradient>
  </defs>
  <g
     inkscape:label="Capa 1"
     inkscape:groupmode="layer"
     id="layer1">
    <path
       id="path8142"
       style="display:inline;fill:url(#radialGradient8543);fill-opacity:1;fill-rule:evenodd;stroke:#aa4400;stroke-width:2;stroke-dasharray:none;stroke-opacity:1"
       d="m 68.820932,5.4138896 c -0.0718,-7.65e-4 -0.144,0.001 -0.21601,0.0057 -4.61678,0.299224 -7.35769,11.7687914 -7.35769,11.7687914 0,0 -12.16658,-11.9514944 -16.639813,-7.7721364 -3.571429,3.3367974 1.772574,10.2815614 5.289603,13.6756524 0.54756,0.528422 0.82578,1.015233 0.93741,1.46451 A 55.101711,55.101711 0 0 0 14.020139,76.494323 55.101711,55.101711 0 0 0 69.121682,131.59587 55.101711,55.101711 0 0 0 124.22375,76.494323 55.101711,55.101711 0 0 0 86.442592,24.190542 c 0.11648,-0.473357 0.41185,-0.96943 0.99839,-1.485698 4.11511,-3.622075 11.37866,-10.595321 7.61194,-14.5784384 -4.43747,-4.692371 -17.64854,7.9948614 -17.64854,7.9948614 0,0 -4.06068,-10.6591674 -8.58345,-10.7073574 z" />
    <circle
       style="display:inline;fill:#803300;fill-opacity:1;fill-rule:evenodd;stroke:#803300;stroke-width:2;stroke-dasharray:none;stroke-opacity:1"
       id="path8389"
       cx="56.422676"
       cy="66.044197"
       r="7.2248888" />
    <circle
       style="display:inline;fill:#803300;fill-opacity:1;fill-rule:evenodd;stroke:#803300;stroke-width:2.8517;stroke-dasharray:none;stroke-opacity:1"
       id="path8391"
       cx="84.2901"
       cy="62.947826"
       r="10.669516" />
    <circle
       style="display:inline;fill:#803300;fill-opacity:1;fill-rule:evenodd;stroke:#803300;stroke-width:2;stroke-dasharray:none;stroke-opacity:1"
       id="path8393"
       cx="70.098351"
       cy="91.331322"
       r="4.1285076" />
  </g>
</svg>
