<?xml version="1.0" encoding="UTF-8" standalone="no"?>
<!-- Created with Inkscape (http://www.inkscape.org/) -->

<svg
   width="512"
   height="512"
   viewBox="0 0 135.46666 135.46667"
   version="1.1"
   id="svg2722"
   inkscape:version="1.2.2 (732a01da63, 2022-12-09)"
   sodipodi:docname="sandia.svg"
   xmlns:inkscape="http://www.inkscape.org/namespaces/inkscape"
   xmlns:sodipodi="http://sodipodi.sourceforge.net/DTD/sodipodi-0.dtd"
   xmlns="http://www.w3.org/2000/svg"
   xmlns:svg="http://www.w3.org/2000/svg">
  <sodipodi:namedview
     id="namedview2724"
     pagecolor="#ffffff"
     bordercolor="#000000"
     borderopacity="0.25"
     inkscape:showpageshadow="2"
     inkscape:pageopacity="0.0"
     inkscape:pagecheckerboard="0"
     inkscape:deskcolor="#d1d1d1"
     inkscape:document-units="mm"
     showgrid="false"
     inkscape:zoom="0.85742188"
     inkscape:cx="48.984055"
     inkscape:cy="275.24374"
     inkscape:window-width="1366"
     inkscape:window-height="705"
     inkscape:window-x="-8"
     inkscape:window-y="-8"
     inkscape:window-maximized="1"
     inkscape:current-layer="layer1" />
  <defs
     id="defs2719">
    <clipPath
       clipPathUnits="userSpaceOnUse"
       id="clipPath2252">
      <g
         id="g2262">
        <path
           id="path2254"
           style="fill:#008033;fill-rule:evenodd;stroke:#2ca05a;stroke-width:0"
           d="m -19.179996,29.789122 c 0,0 37.772114,-32.5816162 76.226766,-33.4177331 38.454651,-0.8361168 63.30518,-23.9300719 63.30518,-23.9300719 l 11.75192,19.3600513 c 0,0 -30.89187,29.5097977 -67.879491,28.0564367 C 27.23676,18.404444 -7.5941529,48.067107 -7.5941529,48.067107 Z"
           sodipodi:nodetypes="czcczcc" />
        <path
           id="path2256"
           style="fill:#008033;fill-rule:evenodd;stroke:#2ca05a;stroke-width:0"
           d="m -12.976492,61.171554 c 0,0 37.772114,-32.581616 76.226766,-33.417733 C 101.70493,26.917704 126.55545,3.8237493 126.55545,3.8237493 l 11.75192,19.3600517 c 0,0 -30.89187,29.509797 -67.879487,28.056436 C 33.440264,49.786876 -1.3906488,79.449539 -1.3906488,79.449539 Z"
           sodipodi:nodetypes="czcczcc" />
        <path
           id="path2258"
           style="fill:#008033;fill-rule:evenodd;stroke:#2ca05a;stroke-width:0"
           d="m -5.6782519,92.189074 c 0,0 37.7721139,-32.581616 76.2267659,-33.417733 C 109.00317,57.935224 133.85369,34.84127 133.85369,34.84127 l 11.75192,19.360051 c 0,0 -30.89187,29.509797 -67.879487,28.056436 C 40.738504,80.804396 5.9075913,110.46706 5.9075913,110.46706 Z"
           sodipodi:nodetypes="czcczcc" />
        <path
           id="path2260"
           style="fill:#008033;fill-rule:evenodd;stroke:#2ca05a;stroke-width:0"
           d="m 6.3638442,124.30133 c 0,0 37.7721138,-32.581616 76.2267658,-33.417733 38.45466,-0.836117 63.30518,-23.930071 63.30518,-23.930071 l 11.75192,19.360051 c 0,0 -30.89187,29.509793 -67.879491,28.056433 -36.987619,-1.45336 -71.818532,28.2093 -71.818532,28.2093 z"
           sodipodi:nodetypes="czcczcc" />
      </g>
    </clipPath>
  </defs>
  <g
     inkscape:label="Capa 1"
     inkscape:groupmode="layer"
     id="layer1">
    <g
       id="g2270"
       style="display:inline;fill:#ff6600;stroke:#aa4400"
       transform="translate(-1.0694612,6.2659506)">
      <circle
         style="display:inline;fill:#37c871;fill-rule:evenodd;stroke:#005522;stroke-width:2.27014;stroke-opacity:1"
         id="circle2128"
         cx="68.957085"
         cy="62.547413"
         r="63.262936"
         inkscape:label="base" />
      <circle
         style="display:inline;fill:#008033;fill-rule:evenodd;stroke:#008033;stroke-width:2.27014;stroke-opacity:1"
         id="circle1953"
         cx="68.957085"
         cy="62.547413"
         r="63.262936"
         clip-path="url(#clipPath2252)" />
      <circle
         style="display:inline;fill:none;fill-rule:evenodd;stroke:#005522;stroke-width:2.27014;stroke-opacity:1"
         id="circle2264"
         cx="68.957085"
         cy="62.547413"
         r="63.262936"
         inkscape:label="base" />
    </g>
    <g
       id="g1965"
       style="display:inline;fill:#16502d;fill-opacity:1;stroke:#16502d;stroke-width:2;stroke-dasharray:none;stroke-opacity:1"
       inkscape:label="caras"
       transform="translate(-43.353969,-1.2820104)">
      <ellipse
         style="fill:#16502d;fill-opacity:1;fill-rule:evenodd;stroke:#16502d;stroke-width:1.48695;stroke-dasharray:none;stroke-opacity:1"
         id="ellipse1959"
         cx="112.29205"
         cy="85.061226"
         rx="5.9591546"
         ry="6.3240666" />
      <ellipse
         style="display:inline;fill:#16502d;fill-opacity:1;fill-rule:evenodd;stroke:#16502d;stroke-width:1.48695;stroke-dasharray:none;stroke-opacity:1"
         id="ellipse1959-6"
         cx="125.66691"
         cy="56.482841"
         rx="5.9591546"
         ry="6.3240666" />
      <g
         id="g1963"
         style="display:inline;fill:#16502d;stroke:#16502d;stroke-width:2;stroke-dasharray:none;stroke-opacity:1"
         transform="rotate(-90,68.873095,59.906071)">
        <path
           id="path1961"
           style="fill:#16502d;fill-opacity:1;fill-rule:evenodd;stroke:#16502d;stroke-width:2.24722;stroke-dasharray:none;stroke-opacity:1"
           d="m 78.886602,83.925375 -8.655046,12.470772 -8.603754,-11.871634 7.973916,9.102151 z"
           sodipodi:nodetypes="ccccc" />
      </g>
    </g>
  </g>
</svg>
